<svg xmlns="http://www.w3.org/2000/svg" viewBox="0 0 64 64" role="img" aria-label="Sistema Financeiro">
  <rect width="64" height="64" rx="16" fill="#12263a" />
  <circle cx="32" cy="32" r="22" fill="#1f9d7a" opacity="0.18" />
  <path
    d="M37.8 19.6c-2.2-1.3-5-2-8.1-2-6.7 0-11.5 3.5-11.5 8.8 0 4.1 2.7 6.6 8.8 8.1l3.3.8c3 .7 4.2 1.7 4.2 3.4 0 2.2-2.1 3.7-5.5 3.7-3.1 0-6.3-1.2-8.7-3.2l-3.1 4.7c3 2.4 6.7 3.7 10.7 3.9v4.5h4.5v-4.8c6.2-.8 10-4.4 10-9.4 0-4.3-2.5-6.8-8.8-8.4l-3.2-.8c-3.3-.8-4.4-1.7-4.4-3.5 0-2 1.8-3.2 4.8-3.2 2.6 0 4.9.7 7 2.1z"
    fill="#f2efe8"
  />
</svg>
